<?xml version="1.0" standalone="no"?>
<!DOCTYPE svg PUBLIC "-//W3C//DTD SVG 20010904//EN"
 "http://www.w3.org/TR/2001/REC-SVG-20010904/DTD/svg10.dtd">
<svg version="1.0" xmlns="http://www.w3.org/2000/svg"
 width="204.000000pt" height="192.000000pt" viewBox="0 0 204.000000 192.000000"
 preserveAspectRatio="xMidYMid meet">

<g transform="translate(0.000000,192.000000) scale(0.100000,-0.100000)"
fill="#767676" stroke="none">
<path d="M945 1593 c-153 -24 -262 -79 -373 -189 -68 -67 -89 -96 -121 -165
-51 -110 -66 -175 -65 -284 1 -163 59 -313 166 -429 57 -63 163 -139 210 -151
23 -6 23 -5 24 82 1 64 11 127 37 234 32 130 36 156 30 231 -6 91 7 135 51
170 29 24 91 23 116 -2 34 -34 34 -63 0 -182 -45 -163 -30 -208 70 -208 115 0
190 111 190 282 0 89 -13 128 -59 181 -50 57 -112 82 -201 81 -121 -1 -207
-51 -257 -148 -37 -71 -38 -170 -4 -239 20 -41 22 -55 15 -89 -5 -23 -14 -43
-21 -45 -20 -7 -82 57 -110 115 -24 49 -28 69 -28 143 0 81 2 91 40 165 68
132 176 199 340 211 239 17 420 -128 433 -347 11 -188 -91 -361 -240 -405 -92
-27 -158 -17 -210 32 l-27 25 -11 -43 c-29 -112 -44 -157 -71 -211 -16 -31
-29 -59 -29 -62 0 -11 108 -26 183 -26 243 1 466 137 568 348 96 200 89 428
-18 611 -80 137 -225 250 -373 290 -76 21 -201 33 -255 24z"/>
</g>
</svg>
