<?xml version="1.0" standalone="no"?>
<!DOCTYPE svg PUBLIC "-//W3C//DTD SVG 20010904//EN"
 "http://www.w3.org/TR/2001/REC-SVG-20010904/DTD/svg10.dtd">
<svg version="1.0" xmlns="http://www.w3.org/2000/svg"
 width="626.000000pt" height="588.000000pt" viewBox="0 0 626.000000 588.000000"
 preserveAspectRatio="xMidYMid meet">

<g transform="translate(0.000000,588.000000) scale(0.100000,-0.100000)"
fill="#767676" stroke="none">
<path d="M3178 4925 c-17 -10 -31 -29 -37 -53 -7 -25 -11 -480 -11 -1375 0
-1328 0 -1338 -21 -1399 -42 -127 -128 -219 -259 -282 -61 -29 -72 -31 -180
-31 -110 0 -119 2 -181 32 -99 49 -191 138 -236 229 -31 64 -37 88 -41 158 -9
180 57 322 195 417 64 44 165 79 229 79 75 0 118 20 133 60 15 45 15 675 0
719 -18 52 -55 64 -168 56 -341 -24 -619 -149 -851 -384 -156 -157 -249 -309
-314 -511 -49 -151 -61 -234 -60 -405 1 -226 42 -394 142 -589 155 -302 454
-554 772 -650 462 -140 976 -8 1310 335 190 195 307 421 356 690 15 83 18 171
18 736 1 354 4 643 7 643 4 0 26 -11 50 -24 165 -92 439 -166 669 -180 107 -7
148 6 173 54 17 33 18 58 12 370 -5 254 -10 341 -21 362 -17 32 -54 45 -156
51 -65 5 -93 13 -172 50 -239 114 -442 309 -517 498 -24 62 -49 183 -49 239 0
52 -18 88 -51 106 -42 21 -702 20 -741 -1z"/>
</g>
</svg>
