<?xml version="1.0" standalone="no"?>
<!DOCTYPE svg PUBLIC "-//W3C//DTD SVG 20010904//EN"
 "http://www.w3.org/TR/2001/REC-SVG-20010904/DTD/svg10.dtd">
<svg version="1.0" xmlns="http://www.w3.org/2000/svg"
 width="204.000000pt" height="192.000000pt" viewBox="0 0 204.000000 192.000000"
 preserveAspectRatio="xMidYMid meet">

<g transform="translate(0.000000,192.000000) scale(0.100000,-0.100000)"
fill="#767676" stroke="none">
<path d="M460 1535 c0 -5 79 -121 357 -524 l81 -119 -219 -255 c-120 -140
-219 -258 -219 -261 0 -3 18 -6 40 -6 38 0 43 4 147 123 60 68 149 171 198
230 l90 106 21 -26 c12 -14 84 -117 160 -229 l139 -203 163 -1 c89 0 162 3
162 8 0 4 -101 153 -225 332 -124 179 -224 331 -222 337 1 7 93 118 205 247
111 130 202 238 202 241 0 3 -19 5 -43 5 l-42 0 -184 -215 c-149 -174 -187
-213 -197 -203 -11 12 -180 255 -257 370 l-32 48 -162 0 c-90 0 -163 -2 -163
-5z m297 -87 c33 -37 683 -987 683 -998 0 -6 -28 -10 -68 -10 -53 0 -72 4 -84
18 -24 26 -678 980 -684 997 -5 12 6 15 63 15 59 0 72 -3 90 -22z"/>
</g>
</svg>
