<?xml version="1.0" standalone="no"?>
<!DOCTYPE svg PUBLIC "-//W3C//DTD SVG 20010904//EN"
 "http://www.w3.org/TR/2001/REC-SVG-20010904/DTD/svg10.dtd">
<svg version="1.0" xmlns="http://www.w3.org/2000/svg"
 width="204.000000pt" height="192.000000pt" viewBox="0 0 204.000000 192.000000"
 preserveAspectRatio="xMidYMid meet">

<g transform="translate(0.000000,192.000000) scale(0.100000,-0.100000)"
fill="#767676" stroke="none">
<path d="M470 1600 c-192 -12 -231 -23 -281 -77 -33 -35 -51 -71 -75 -148 -17
-54 -19 -96 -19 -410 l0 -350 28 -79 c47 -134 83 -166 207 -186 180 -28 1189
-28 1365 0 113 18 169 81 202 230 22 98 26 645 5 755 -22 118 -67 196 -132
230 -57 29 -179 37 -680 40 -278 1 -557 -1 -620 -5z m591 -482 c132 -68 239
-126 239 -129 0 -9 -479 -257 -485 -251 -7 8 -6 502 1 502 4 0 114 -55 245
-122z"/>
</g>
</svg>
